<?xml version="1.0" encoding="UTF-8"?>
<svg xmlns="http://www.w3.org/2000/svg" xmlns:xlink="http://www.w3.org/1999/xlink" viewBox="0 0 64 64" width="64px" height="64px">
<defs>
<linearGradient id="linear0" gradientUnits="userSpaceOnUse" x1="32" y1="38.5" x2="32" y2="45.501999" >
<stop offset="0" style="stop-color:rgb(98.039216%,32.156864%,32.156864%);stop-opacity:1;"/>
<stop offset="1" style="stop-color:rgb(93.725491%,100%,67.058825%);stop-opacity:1;"/>
</linearGradient>
<linearGradient id="linear1" gradientUnits="userSpaceOnUse" x1="32" y1="5.333" x2="32" y2="58.717999" >
<stop offset="0" style="stop-color:rgb(100%,25.882354%,10.196079%);stop-opacity:1;"/>
<stop offset="1" style="stop-color:rgb(100%,96.470588%,13.333334%);stop-opacity:1;"/>
</linearGradient>
<linearGradient id="linear2" gradientUnits="userSpaceOnUse" x1="32" y1="5.333" x2="32" y2="58.717999" >
<stop offset="0" style="stop-color:rgb(100%,25.882354%,10.196079%);stop-opacity:1;"/>
<stop offset="1" style="stop-color:rgb(100%,96.470588%,13.333334%);stop-opacity:1;"/>
</linearGradient>
<linearGradient id="linear3" gradientUnits="userSpaceOnUse" x1="26.409" y1="5.333" x2="26.409" y2="58.717999" >
<stop offset="0" style="stop-color:rgb(100%,25.882354%,10.196079%);stop-opacity:1;"/>
<stop offset="1" style="stop-color:rgb(100%,96.470588%,13.333334%);stop-opacity:1;"/>
</linearGradient>
<linearGradient id="linear4" gradientUnits="userSpaceOnUse" x1="32" y1="5.333" x2="32" y2="58.717999" >
<stop offset="0" style="stop-color:rgb(100%,25.882354%,10.196079%);stop-opacity:1;"/>
<stop offset="1" style="stop-color:rgb(100%,96.470588%,13.333334%);stop-opacity:1;"/>
</linearGradient>
</defs>
<g id="surface96435472">
<path style=" stroke:none;fill-rule:nonzero;fill:url(#linear0);" d="M 27.105469 39 C 26.492188 39 25.992188 39.554688 26.109375 40.15625 C 26.652344 42.917969 29.082031 45 32 45 C 34.917969 45 37.347656 42.917969 37.886719 40.15625 C 38.007812 39.554688 37.507812 39 36.894531 39 Z M 27.105469 39 "/>
<path style=" stroke:none;fill-rule:nonzero;fill:url(#linear1);" d="M 32 12 C 20.972656 12 12 20.972656 12 32 C 12 43.027344 20.972656 52 32 52 C 43.027344 52 52 43.027344 52 32 C 52 20.972656 43.027344 12 32 12 Z M 32 50 C 22.074219 50 14 41.925781 14 32 C 14 22.074219 22.074219 14 32 14 C 41.925781 14 50 22.074219 50 32 C 50 41.925781 41.925781 50 32 50 Z M 32 50 "/>
<path style=" stroke:none;fill-rule:nonzero;fill:url(#linear2);" d="M 36 27 C 34.898438 27 34 28 34 29 L 30 29 C 30 28 29.101562 27 28 27 L 18 27 C 16.898438 27 16 27.898438 16 29 L 16 31 C 16 34.308594 18.691406 37 22 37 L 24 37 C 27.308594 37 30 34.308594 30 31 L 34 31 C 34 34.308594 36.691406 37 40 37 L 42 37 C 45.308594 37 48 34.308594 48 31 L 48 29 C 48 27.898438 47.101562 27 46 27 Z M 28 31 C 28 33.207031 26.207031 35 24 35 L 22 35 C 19.792969 35 18 33.207031 18 31 L 18 29 L 19.585938 29 L 19.292969 29.292969 C 18.902344 29.683594 18.902344 30.316406 19.292969 30.707031 C 19.488281 30.902344 19.742188 31 20 31 C 20.257812 31 20.511719 30.902344 20.707031 30.707031 L 22.414062 29 L 24.585938 29 L 22.292969 31.292969 C 21.902344 31.683594 21.902344 32.316406 22.292969 32.707031 C 22.488281 32.902344 22.742188 33 23 33 C 23.257812 33 23.511719 32.902344 23.707031 32.707031 L 27.414062 29 L 28 29 Z M 46 31 C 46 33.207031 44.207031 35 42 35 L 40 35 C 37.792969 35 36 33.207031 36 31 L 36 29 L 37.585938 29 L 37.292969 29.292969 C 36.902344 29.683594 36.902344 30.316406 37.292969 30.707031 C 37.488281 30.902344 37.742188 31 38 31 C 38.257812 31 38.511719 30.902344 38.707031 30.707031 L 40.414062 29 L 42.585938 29 L 40.292969 31.292969 C 39.902344 31.683594 39.902344 32.316406 40.292969 32.707031 C 40.488281 32.902344 40.742188 33 41 33 C 41.257812 33 41.511719 32.902344 41.707031 32.707031 L 45.414062 29 L 46 29 Z M 46 31 "/>
<path style=" stroke:none;fill-rule:nonzero;fill:url(#linear3);" d="M 20.820312 23 C 21.09375 23 21.367188 22.886719 21.5625 22.667969 C 24.21875 19.699219 28.023438 18 32 18 C 32.550781 18 33 17.554688 33 17 C 33 16.445312 32.550781 16 32 16 C 27.453125 16 23.109375 17.941406 20.074219 21.332031 C 19.707031 21.742188 19.742188 22.378906 20.152344 22.746094 C 20.34375 22.914062 20.582031 23 20.820312 23 Z M 20.820312 23 "/>
<path style=" stroke:none;fill-rule:nonzero;fill:url(#linear4);" d="M 58 32 C 58 30.089844 56.789062 28.234375 54.65625 26.832031 C 54.882812 25.546875 54.746094 24.238281 54.253906 23.007812 C 53.722656 21.695312 52.808594 20.582031 51.632812 19.804688 C 52.199219 17.257812 51.753906 14.984375 50.386719 13.617188 C 49.019531 12.25 46.742188 11.800781 44.195312 12.367188 C 43.417969 11.195312 42.304688 10.277344 40.992188 9.75 C 39.761719 9.253906 38.457031 9.113281 37.167969 9.347656 C 35.765625 7.210938 33.910156 6 32 6 C 30.089844 6 28.234375 7.210938 26.832031 9.34375 C 25.542969 9.113281 24.234375 9.25 23.007812 9.746094 C 21.699219 10.277344 20.578125 11.195312 19.800781 12.363281 C 17.253906 11.796875 14.980469 12.25 13.613281 13.613281 C 12.246094 14.980469 11.800781 17.257812 12.367188 19.804688 C 11.191406 20.582031 10.277344 21.695312 9.746094 23.007812 C 9.253906 24.238281 9.113281 25.542969 9.34375 26.832031 C 7.210938 28.234375 6 30.089844 6 32 C 6 33.910156 7.210938 35.765625 9.34375 37.167969 C 9.117188 38.453125 9.253906 39.761719 9.746094 40.992188 C 10.277344 42.304688 11.191406 43.417969 12.367188 44.195312 C 11.800781 46.742188 12.246094 49.015625 13.613281 50.382812 C 14.984375 51.753906 17.261719 52.199219 19.804688 51.632812 C 20.582031 52.804688 21.699219 53.722656 23.007812 54.25 C 24.238281 54.746094 25.542969 54.886719 26.832031 54.652344 C 28.234375 56.789062 30.089844 58 32 58 C 33.910156 58 35.765625 56.789062 37.167969 54.65625 C 38.457031 54.886719 39.765625 54.75 40.992188 54.253906 C 42.300781 53.722656 43.414062 52.808594 44.195312 51.632812 C 46.738281 52.203125 49.015625 51.753906 50.382812 50.386719 C 51.75 49.019531 52.199219 46.742188 51.632812 44.195312 C 52.804688 43.417969 53.722656 42.304688 54.25 40.992188 C 54.746094 39.761719 54.882812 38.457031 54.652344 37.167969 C 56.789062 35.765625 58 33.910156 58 32 Z M 53.023438 35.820312 C 52.621094 36.050781 52.425781 36.523438 52.558594 36.96875 C 52.875 38.0625 52.820312 39.191406 52.398438 40.242188 C 51.945312 41.355469 51.105469 42.273438 50.023438 42.820312 C 49.59375 43.039062 49.378906 43.535156 49.515625 43.996094 C 50.152344 46.136719 49.945312 47.992188 48.96875 48.972656 C 47.992188 49.949219 46.136719 50.152344 43.996094 49.515625 C 43.535156 49.382812 43.039062 49.59375 42.820312 50.023438 C 42.273438 51.105469 41.355469 51.949219 40.242188 52.398438 C 39.191406 52.820312 38.0625 52.878906 36.96875 52.558594 C 36.523438 52.425781 36.046875 52.621094 35.820312 53.023438 C 34.765625 54.886719 33.335938 56 32 56 C 30.664062 56 29.234375 54.886719 28.179688 53.023438 C 27.996094 52.703125 27.660156 52.515625 27.308594 52.515625 C 27.21875 52.515625 27.121094 52.53125 27.03125 52.558594 C 25.9375 52.875 24.804688 52.820312 23.757812 52.398438 C 22.644531 51.945312 21.726562 51.101562 21.179688 50.023438 C 20.960938 49.59375 20.460938 49.382812 20.003906 49.515625 C 17.863281 50.152344 16.007812 49.945312 15.027344 48.96875 C 14.054688 47.992188 13.847656 46.136719 14.480469 43.996094 C 14.617188 43.53125 14.40625 43.039062 13.976562 42.820312 C 12.894531 42.273438 12.050781 41.355469 11.601562 40.242188 C 11.179688 39.191406 11.121094 38.0625 11.441406 36.96875 C 11.570312 36.523438 11.378906 36.050781 10.976562 35.820312 C 9.113281 34.765625 8 33.335938 8 32 C 8 30.664062 9.113281 29.234375 10.976562 28.179688 C 11.378906 27.949219 11.574219 27.476562 11.441406 27.03125 C 11.125 25.9375 11.179688 24.808594 11.601562 23.757812 C 12.054688 22.644531 12.894531 21.726562 13.976562 21.179688 C 14.40625 20.960938 14.621094 20.464844 14.484375 20.003906 C 13.847656 17.863281 14.054688 16.007812 15.03125 15.027344 C 16.007812 14.054688 17.867188 13.847656 20.003906 14.480469 C 20.472656 14.617188 20.964844 14.402344 21.183594 13.96875 L 21.238281 13.851562 C 21.789062 12.835938 22.6875 12.035156 23.761719 11.601562 C 24.808594 11.179688 25.941406 11.121094 27.03125 11.441406 C 27.472656 11.574219 27.953125 11.378906 28.179688 10.976562 C 29.234375 9.113281 30.664062 8 32 8 C 33.335938 8 34.765625 9.113281 35.820312 10.976562 C 36.050781 11.378906 36.523438 11.574219 36.96875 11.441406 C 38.0625 11.121094 39.191406 11.179688 40.242188 11.601562 C 41.355469 12.054688 42.273438 12.894531 42.820312 13.976562 C 43.039062 14.40625 43.527344 14.617188 43.996094 14.484375 C 46.132812 13.851562 47.996094 14.054688 48.972656 15.03125 C 49.945312 16.007812 50.152344 17.863281 49.519531 20.003906 C 49.382812 20.46875 49.59375 20.960938 50.023438 21.179688 C 51.105469 21.726562 51.949219 22.644531 52.398438 23.757812 C 52.820312 24.808594 52.878906 25.9375 52.558594 27.03125 C 52.429688 27.476562 52.621094 27.949219 53.023438 28.179688 C 54.886719 29.234375 56 30.664062 56 32 C 56 33.335938 54.886719 34.765625 53.023438 35.820312 Z M 53.023438 35.820312 "/>
</g>
</svg>
